<svg width="114" height="37" viewBox="0 0 114 37" fill="none" xmlns="http://www.w3.org/2000/svg">
<path d="M6.71195 16.2446C8.03852 9.14584 14.2351 4 21.4567 4H110.387C112.265 4 113.681 5.70534 113.336 7.55106L110.288 23.8634C108.962 30.9622 102.765 36.1081 95.5435 36.1081H6.61255C4.73487 36.1081 3.31868 34.4028 3.6636 32.557L6.71195 16.2446Z" fill="#FF9776"/>
<path d="M3.71195 12.2446C5.03852 5.14584 11.2351 0 18.4567 0H107.387C109.265 0 110.681 1.70534 110.336 3.55106L107.288 19.8634C105.962 26.9622 99.7652 32.1081 92.5435 32.1081H3.61255C1.73487 32.1081 0.318685 30.4028 0.663601 28.557L3.71195 12.2446Z" fill="#8E20FF"/>
<path d="M25.25 21.1591C24.303 21.1591 23.5227 20.9716 22.9091 20.5966C22.2955 20.2178 21.8655 19.6913 21.6193 19.017C21.3731 18.339 21.3258 17.553 21.4773 16.6591C21.6212 15.7652 21.928 14.9811 22.3977 14.3068C22.8712 13.6288 23.4773 13.1023 24.2159 12.7273C24.9583 12.3485 25.803 12.1591 26.75 12.1591C27.6061 12.1591 28.3201 12.3144 28.892 12.625C29.4678 12.9318 29.8788 13.3674 30.125 13.9318C30.375 14.4924 30.4394 15.1515 30.3182 15.9091H27.4091C27.4432 15.4545 27.3693 15.1061 27.1875 14.8636C27.0095 14.6212 26.75 14.5 26.4091 14.5C26.1288 14.5 25.8712 14.5795 25.6364 14.7386C25.4053 14.8939 25.2064 15.1307 25.0398 15.4489C24.8769 15.7633 24.7576 16.1591 24.6818 16.6364C24.6061 17.1136 24.5966 17.5114 24.6534 17.8295C24.714 18.1439 24.8314 18.3807 25.0057 18.5398C25.1837 18.6951 25.4091 18.7727 25.6818 18.7727C25.9167 18.7727 26.1326 18.7197 26.3295 18.6136C26.5303 18.5038 26.7027 18.3447 26.8466 18.1364C26.9943 17.9242 27.1061 17.6667 27.1818 17.3636H30.0909C29.947 18.1364 29.6572 18.8068 29.2216 19.375C28.786 19.9432 28.2311 20.3826 27.5568 20.6932C26.8826 21.0038 26.1136 21.1591 25.25 21.1591ZM33.6604 21.1364C33.1074 21.1364 32.632 21.0455 32.2343 20.8636C31.8403 20.678 31.5524 20.3977 31.3706 20.0227C31.1926 19.6439 31.1528 19.1667 31.2513 18.5909C31.3309 18.1136 31.4805 17.7064 31.7002 17.3693C31.9199 17.0322 32.1926 16.7557 32.5184 16.5398C32.8441 16.3239 33.2096 16.1591 33.6149 16.0455C34.024 15.928 34.4559 15.8523 34.9104 15.8182C35.4028 15.7803 35.8024 15.733 36.1093 15.6761C36.4161 15.6193 36.6452 15.5417 36.7968 15.4432C36.9483 15.3447 37.0392 15.2121 37.0695 15.0455V15.0227C37.1036 14.7955 37.043 14.6212 36.8877 14.5C36.7362 14.3788 36.524 14.3182 36.2513 14.3182C35.9559 14.3182 35.7002 14.3826 35.4843 14.5114C35.2721 14.6402 35.1263 14.8409 35.0468 15.1136H32.1604C32.2816 14.5833 32.5297 14.0947 32.9047 13.6477C33.2835 13.197 33.7854 12.8371 34.4104 12.5682C35.0392 12.2955 35.7892 12.1591 36.6604 12.1591C37.2816 12.1591 37.8271 12.233 38.2968 12.3807C38.7665 12.5246 39.1547 12.7273 39.4615 12.9886C39.7721 13.2462 39.9899 13.5492 40.1149 13.8977C40.2437 14.2424 40.274 14.6174 40.2059 15.0227L39.2059 21H36.274L36.4786 19.7727H36.4104C36.1831 20.0985 35.9274 20.3617 35.6434 20.5625C35.363 20.7633 35.0562 20.9091 34.7229 21C34.3934 21.0909 34.0392 21.1364 33.6604 21.1364ZM35.024 19.1591C35.2589 19.1591 35.4899 19.1098 35.7172 19.0114C35.9445 18.9129 36.1396 18.7708 36.3024 18.5852C36.4653 18.3996 36.5695 18.1742 36.6149 17.9091L36.7286 17.1818C36.6452 17.2159 36.5524 17.2481 36.4502 17.2784C36.3517 17.3049 36.2475 17.3314 36.1377 17.358C36.0316 17.3845 35.918 17.4091 35.7968 17.4318C35.6793 17.4545 35.5581 17.4773 35.4331 17.5C35.1831 17.5379 34.9729 17.6004 34.8024 17.6875C34.632 17.7708 34.4994 17.875 34.4047 18C34.31 18.1212 34.2513 18.2576 34.2286 18.4091C34.1945 18.6477 34.2494 18.8333 34.3934 18.9659C34.5411 19.0947 34.7513 19.1591 35.024 19.1591ZM40.6617 24.2727L42.6731 12.2727H45.7867L45.5367 13.7955H45.6049C45.764 13.5 45.9723 13.2292 46.2299 12.983C46.4912 12.733 46.7981 12.5341 47.1503 12.3864C47.5064 12.2348 47.9003 12.1591 48.3322 12.1591C48.9079 12.1591 49.4287 12.3125 49.8947 12.6193C50.3606 12.9261 50.7034 13.4091 50.9231 14.0682C51.1428 14.7273 51.1655 15.5833 50.9912 16.6364C50.8246 17.6439 50.5272 18.4792 50.0992 19.142C49.675 19.8049 49.175 20.2992 48.5992 20.625C48.0272 20.9508 47.4306 21.1136 46.8094 21.1136C46.4003 21.1136 46.0462 21.0473 45.7469 20.9148C45.4477 20.7784 45.2072 20.5947 45.0253 20.3636C44.8435 20.1288 44.7185 19.8636 44.6503 19.5682H44.5822L43.8094 24.2727H40.6617ZM45.014 16.6364C44.9458 17.0606 44.9401 17.428 44.9969 17.7386C45.0575 18.0455 45.1769 18.2841 45.3549 18.4545C45.5367 18.6212 45.7716 18.7045 46.0594 18.7045C46.3473 18.7045 46.6049 18.6231 46.8322 18.4602C47.0594 18.2936 47.2526 18.0568 47.4117 17.75C47.5708 17.4394 47.6882 17.0682 47.764 16.6364C47.8322 16.2045 47.8378 15.8352 47.781 15.5284C47.7242 15.2178 47.6087 14.9811 47.4344 14.8182C47.2602 14.6515 47.0291 14.5682 46.7412 14.5682C46.4534 14.5682 46.1901 14.6515 45.9515 14.8182C45.7166 14.9811 45.5178 15.2178 45.3549 15.5284C45.1958 15.8352 45.0822 16.2045 45.014 16.6364ZM58.7141 12.2727L58.3278 14.5455H52.5778L52.9641 12.2727H58.7141ZM54.4187 10.1818H57.5551L56.2255 18.1932C56.2066 18.3144 56.2104 18.4167 56.2369 18.5C56.2634 18.5795 56.3164 18.6402 56.396 18.6818C56.4793 18.7197 56.5891 18.7386 56.7255 18.7386C56.8164 18.7386 56.9282 18.7273 57.0607 18.7045C57.1933 18.678 57.2937 18.6591 57.3619 18.6477L57.4528 20.8523C57.2937 20.8977 57.0797 20.9489 56.8107 21.0057C56.5456 21.0663 56.2369 21.1061 55.8846 21.125C55.1498 21.1591 54.5513 21.0814 54.0891 20.892C53.6308 20.7027 53.3126 20.4072 53.1346 20.0057C52.9604 19.6004 52.9301 19.0947 53.0437 18.4886L54.4187 10.1818ZM59.0194 21L60.474 12.2727H63.6103L62.1558 21H59.0194ZM62.1785 11.3636C61.7543 11.3636 61.4115 11.2235 61.1501 10.9432C60.8887 10.6591 60.7922 10.322 60.8603 9.93182C60.9285 9.53409 61.1369 9.19697 61.4853 8.92045C61.8338 8.64015 62.2202 8.5 62.6444 8.5C63.0725 8.5 63.4134 8.64015 63.6672 8.92045C63.9209 9.19697 64.0156 9.53409 63.9512 9.93182C63.8906 10.322 63.6861 10.6591 63.3376 10.9432C62.9929 11.2235 62.6066 11.3636 62.1785 11.3636ZM68.4156 21.1591C67.4687 21.1591 66.6884 20.9716 66.0747 20.5966C65.4649 20.2178 65.0368 19.6913 64.7906 19.017C64.5444 18.339 64.4952 17.553 64.6429 16.6591C64.7906 15.7652 65.0993 14.9811 65.569 14.3068C66.0387 13.6288 66.6429 13.1023 67.3815 12.7273C68.1202 12.3485 68.9649 12.1591 69.9156 12.1591C70.8588 12.1591 71.6353 12.3485 72.2452 12.7273C72.8588 13.1023 73.2887 13.6288 73.5349 14.3068C73.7849 14.9811 73.8361 15.7652 73.6884 16.6591C73.5406 17.553 73.23 18.339 72.7565 19.017C72.2831 19.6913 71.677 20.2178 70.9384 20.5966C70.2035 20.9716 69.3626 21.1591 68.4156 21.1591ZM68.802 18.8409C69.0747 18.8409 69.3228 18.7519 69.5463 18.5739C69.7736 18.3958 69.9668 18.142 70.1259 17.8125C70.2887 17.483 70.4081 17.0909 70.4838 16.6364C70.5596 16.178 70.5709 15.786 70.5179 15.4602C70.4649 15.1307 70.355 14.8769 70.1884 14.6989C70.0217 14.5208 69.802 14.4318 69.5293 14.4318C69.2565 14.4318 69.0065 14.5208 68.7793 14.6989C68.552 14.8769 68.3588 15.1307 68.1997 15.4602C68.0406 15.786 67.9232 16.178 67.8474 16.6364C67.7717 17.0909 67.7584 17.483 67.8077 17.8125C67.8607 18.142 67.9706 18.3958 68.1372 18.5739C68.3077 18.7519 68.5293 18.8409 68.802 18.8409ZM78.6911 16.0909L77.8729 21H74.7365L76.1911 12.2727H79.1684L78.8956 13.9318H78.9865C79.2631 13.375 79.6665 12.9413 80.1968 12.6307C80.7309 12.3163 81.3199 12.1591 81.9638 12.1591C82.5812 12.1591 83.0945 12.2992 83.5036 12.5795C83.9127 12.8598 84.2024 13.2462 84.3729 13.7386C84.5434 14.2311 84.5737 14.7955 84.4638 15.4318L83.532 21H80.3956L81.2138 16.0909C81.2858 15.6591 81.2327 15.3201 81.0547 15.0739C80.8805 14.8277 80.5926 14.7045 80.1911 14.7045C79.9373 14.7045 79.7043 14.7614 79.4922 14.875C79.2839 14.9848 79.1096 15.1439 78.9695 15.3523C78.8331 15.5568 78.7403 15.803 78.6911 16.0909Z" fill="white"/>
</svg>
