<svg width="162" height="162" viewBox="0 0 162 162" fill="none" xmlns="http://www.w3.org/2000/svg">
<circle cx="81" cy="81" r="81" fill="#EFEDF2"/>
<g clip-path="url(#clip0_12_1536)">
<path d="M116.287 66.6646L84.584 34.846C83.7569 34.016 82.3785 33.4626 81.0001 33.4626C79.6217 33.4626 78.519 34.016 77.4163 34.846L45.713 66.6646C44.3346 68.048 43.7832 70.2615 44.6103 72.1983C45.4373 74.1351 47.0914 75.2418 49.2968 75.2418H57.8429C58.1186 75.2418 58.67 75.5185 58.67 76.0718V114.254C58.67 117.021 60.8754 119.234 63.6322 119.234H98.368C101.125 119.234 103.33 117.021 103.33 114.254V76.0718C103.33 75.7952 103.606 75.2418 104.157 75.2418H112.703C114.633 75.2418 116.563 74.1351 117.39 72.1983C118.217 70.2615 117.666 68.3247 116.287 66.6646Z" fill="#B1AAB7"/>
</g>
<defs>
<clipPath id="clip0_12_1536">
<rect width="88.2178" height="110.673" fill="white" transform="translate(36.8911 32.0792)"/>
</clipPath>
</defs>
</svg>
